<svg width="126" height="24" viewBox="0 0 126 24" fill="none" xmlns="http://www.w3.org/2000/svg">
<path d="M17.1641 16.2324C16.9004 18.4883 16.0654 20.2314 14.6592 21.4619C13.2627 22.6826 11.4023 23.293 9.07812 23.293C6.55859 23.293 4.53711 22.3896 3.01367 20.583C1.5 18.7764 0.743164 16.3594 0.743164 13.332V11.2812C0.743164 9.29883 1.09473 7.55566 1.79785 6.05176C2.51074 4.54785 3.5166 3.39551 4.81543 2.59473C6.11426 1.78418 7.61816 1.37891 9.32715 1.37891C11.5928 1.37891 13.4092 2.01367 14.7764 3.2832C16.1436 4.54297 16.9395 6.29102 17.1641 8.52734H14.3369C14.0928 6.82812 13.5605 5.59766 12.7402 4.83594C11.9297 4.07422 10.792 3.69336 9.32715 3.69336C7.53027 3.69336 6.11914 4.35742 5.09375 5.68555C4.07812 7.01367 3.57031 8.90332 3.57031 11.3545V13.4199C3.57031 15.7344 4.05371 17.5752 5.02051 18.9424C5.9873 20.3096 7.33984 20.9932 9.07812 20.9932C10.6406 20.9932 11.8369 20.6416 12.667 19.9385C13.5068 19.2256 14.0635 17.9902 14.3369 16.2324H17.1641ZM19.874 14.9287C19.874 13.376 20.1768 11.9795 20.7822 10.7393C21.3975 9.49902 22.2471 8.54199 23.3311 7.86816C24.4248 7.19434 25.6699 6.85742 27.0664 6.85742C29.2246 6.85742 30.9678 7.60449 32.2959 9.09863C33.6338 10.5928 34.3027 12.5801 34.3027 15.0605V15.251C34.3027 16.7939 34.0049 18.1807 33.4092 19.4111C32.8232 20.6318 31.9785 21.584 30.875 22.2676C29.7812 22.9512 28.5215 23.293 27.0957 23.293C24.9473 23.293 23.2041 22.5459 21.8662 21.0518C20.5381 19.5576 19.874 17.5801 19.874 15.1191V14.9287ZM22.5986 15.251C22.5986 17.0088 23.0039 18.4199 23.8145 19.4844C24.6348 20.5488 25.7285 21.0811 27.0957 21.0811C28.4727 21.0811 29.5664 20.5439 30.377 19.4697C31.1875 18.3857 31.5928 16.8721 31.5928 14.9287C31.5928 13.1904 31.1777 11.7842 30.3477 10.71C29.5273 9.62598 28.4336 9.08398 27.0664 9.08398C25.7285 9.08398 24.6494 9.61621 23.8291 10.6807C23.0088 11.7451 22.5986 13.2686 22.5986 15.251ZM40.6455 23H37.9355V7.15039H40.6455V23ZM37.7158 2.94629C37.7158 2.50684 37.8477 2.13574 38.1113 1.83301C38.3848 1.53027 38.7852 1.37891 39.3125 1.37891C39.8398 1.37891 40.2402 1.53027 40.5137 1.83301C40.7871 2.13574 40.9238 2.50684 40.9238 2.94629C40.9238 3.38574 40.7871 3.75195 40.5137 4.04492C40.2402 4.33789 39.8398 4.48438 39.3125 4.48438C38.7852 4.48438 38.3848 4.33789 38.1113 4.04492C37.8477 3.75195 37.7158 3.38574 37.7158 2.94629ZM47.5596 7.15039L47.6475 9.14258C48.8584 7.61914 50.4404 6.85742 52.3936 6.85742C55.7432 6.85742 57.4326 8.74707 57.4619 12.5264V23H54.752V12.5117C54.7422 11.3691 54.4785 10.5244 53.9609 9.97754C53.4531 9.43066 52.6572 9.15723 51.5732 9.15723C50.6943 9.15723 49.9229 9.3916 49.2588 9.86035C48.5947 10.3291 48.0771 10.9443 47.7061 11.7061V23H44.9961V7.15039H47.5596Z" fill="#B7BAE7"/>
<path d="M61.4023 23V1.67188H67.9648C69.8398 1.67188 71.5146 2.09668 72.9893 2.94629C74.4736 3.78613 75.6309 4.9873 76.4609 6.5498C77.291 8.10254 77.7061 9.87012 77.7061 11.8525V12.834C77.7061 14.8164 77.2959 16.5791 76.4756 18.1221C75.665 19.665 74.5176 20.8613 73.0332 21.7109C71.5488 22.5605 69.874 22.9902 68.0088 23H61.4023ZM65.7969 5.23145V19.4697H67.9209C69.6396 19.4697 70.9531 18.9082 71.8613 17.7852C72.7695 16.6621 73.2334 15.0557 73.2529 12.9658V11.8379C73.2529 9.66992 72.8037 8.0293 71.9053 6.91602C71.0068 5.79297 69.6934 5.23145 67.9648 5.23145H65.7969ZM89.8203 23C89.625 22.6191 89.4834 22.1455 89.3955 21.5791C88.3701 22.7217 87.0371 23.293 85.3965 23.293C83.8438 23.293 82.5547 22.8438 81.5293 21.9453C80.5137 21.0469 80.0059 19.9141 80.0059 18.5469C80.0059 16.8672 80.626 15.5781 81.8662 14.6797C83.1162 13.7812 84.918 13.3271 87.2715 13.3174H89.2197V12.4092C89.2197 11.6768 89.0293 11.0908 88.6484 10.6514C88.2773 10.2119 87.6865 9.99219 86.876 9.99219C86.1631 9.99219 85.6016 10.1631 85.1914 10.5049C84.791 10.8467 84.5908 11.3154 84.5908 11.9111H80.3574C80.3574 10.9932 80.6406 10.1436 81.207 9.3623C81.7734 8.58105 82.5742 7.9707 83.6094 7.53125C84.6445 7.08203 85.8066 6.85742 87.0957 6.85742C89.0488 6.85742 90.5967 7.35059 91.7393 8.33691C92.8916 9.31348 93.4678 10.6904 93.4678 12.4678V19.3379C93.4775 20.8418 93.6875 21.9795 94.0977 22.751V23H89.8203ZM86.3193 20.0557C86.9443 20.0557 87.5205 19.9189 88.0479 19.6455C88.5752 19.3623 88.9658 18.9863 89.2197 18.5176V15.793H87.6377C85.5186 15.793 84.3906 16.5254 84.2539 17.9902L84.2393 18.2393C84.2393 18.7666 84.4248 19.2012 84.7959 19.543C85.167 19.8848 85.6748 20.0557 86.3193 20.0557ZM105.304 18.6201C105.304 18.1025 105.045 17.6973 104.527 17.4043C104.02 17.1016 103.199 16.833 102.066 16.5986C98.2969 15.8076 96.4121 14.2061 96.4121 11.7939C96.4121 10.3877 96.9932 9.21582 98.1553 8.27832C99.3271 7.33105 100.855 6.85742 102.74 6.85742C104.752 6.85742 106.358 7.33105 107.56 8.27832C108.771 9.22559 109.376 10.4561 109.376 11.9697H105.143C105.143 11.3643 104.947 10.8662 104.557 10.4756C104.166 10.0752 103.556 9.875 102.726 9.875C102.013 9.875 101.461 10.0361 101.07 10.3584C100.68 10.6807 100.484 11.0908 100.484 11.5889C100.484 12.0576 100.704 12.4385 101.144 12.7314C101.593 13.0146 102.345 13.2637 103.399 13.4785C104.454 13.6836 105.343 13.918 106.065 14.1816C108.302 15.002 109.42 16.4229 109.42 18.4443C109.42 19.8896 108.8 21.0615 107.56 21.96C106.319 22.8486 104.718 23.293 102.755 23.293C101.427 23.293 100.245 23.0586 99.21 22.5898C98.1846 22.1113 97.3789 21.4619 96.793 20.6416C96.207 19.8115 95.9141 18.918 95.9141 17.9609H99.9277C99.9668 18.7129 100.245 19.2891 100.763 19.6895C101.28 20.0898 101.974 20.29 102.843 20.29C103.653 20.29 104.264 20.1387 104.674 19.8359C105.094 19.5234 105.304 19.1182 105.304 18.6201ZM116.29 8.87891C117.413 7.53125 118.824 6.85742 120.523 6.85742C123.961 6.85742 125.704 8.85449 125.753 12.8486V23H121.52V12.9658C121.52 12.0576 121.324 11.3887 120.934 10.959C120.543 10.5195 119.894 10.2998 118.985 10.2998C117.745 10.2998 116.847 10.7783 116.29 11.7354V23H112.057V0.5H116.29V8.87891Z" fill="#4F60CA"/>
</svg>
