<?xml version="1.0" encoding="utf-8"?>
<!-- Generator: Adobe Illustrator 24.3.0, SVG Export Plug-In . SVG Version: 6.00 Build 0)  -->
<svg version="1.1" id="Layer_1" xmlns="http://www.w3.org/2000/svg" xmlns:xlink="http://www.w3.org/1999/xlink" x="0px" y="0px"
	 viewBox="0 0 1080 864" style="enable-background:new 0 0 1080 864;" xml:space="preserve">
<style type="text/css">
	.st0{display:none;}
	.st1{display:none;fill:#FFFFFF;}
	.st2{fill:#FFFFFF;}
</style>
<rect class="st0" width="1080" height="864"/>
<rect class="st1" width="1080" height="864"/>
<g>
	<path class="st2" d="M374.12,564.36v93.95h84.79v-78.6l-33.94-15.35H374.12z M427.64,643.88h-21.65v-65.5h21.65V643.88z"/>
	<polygon class="st2" points="659.08,564.36 659.08,658.31 718.63,658.31 718.63,639.99 691.09,639.99 691.09,564.36 	"/>
	<path class="st2" d="M813.47,595.39c-0.03-0.64-0.02-1.27,0-1.89v-29.14h-84.56v93.95h59.26c19.53-1,24.31-13.29,25.3-21.58v-7.56
		v-1.96H782.2v17.55h-21.83V618.4h53.1v-13.92h-53.29v-26.13h21.83v17.04H813.47z"/>
	<path class="st2" d="M648.79,658.31v-93.95h-84.56v93.95h31.45v-32.36l21.28,10.43v21.94H648.79z M595.69,608.99v-30.61h21.28
		v41.02L595.69,608.99z"/>
	<path class="st2" d="M553.94,635.92v-71.56h-32.01v53.43l-20.91-9.81v-43.62H469.2v44.55l52.55,24.98v9.99h-20.54v-9.25
		l-32.01-15.54v39.23h64.58C555.05,653.69,553.94,635.92,553.94,635.92z"/>
	<path class="st2" d="M364.05,393.95H242.4c22.83,21.85,21.52,42.72,21.52,42.72v32.29l0.16,1.14l37.51-26.42V420.2h24.46v19.4
		l-61.31,42.89v75.17l37.18-25.6v-27.72l24.46,17.45v5.71l-61.97,43.38V633c2.94,24.95,24.46,25.44,24.46,25.44h12.88v-65.55
		l24.79,16.96v48.59h37.51v-59.68l-43.38-29.35l43.38-30.33v-28.7l-43.38-30l43.38-30.33V393.95z"/>
	<path class="st2" d="M480.48,415.96l-37.1-22.01h-24.22h-36.7v21.2v122.63h36.7v-48.89l25.42,11.31v37.59h35.89V415.96z
		 M444.59,477.66l-25.42-11.97v-50.54h25.42V477.66z"/>
	<polygon class="st2" points="497.18,415.15 516.83,415.15 516.83,537.77 553.68,537.77 553.68,415.15 580.43,415.15 580.43,537.77 
		616.91,537.77 616.91,415.15 636.26,415.15 672.57,393.95 460.22,393.95 	"/>
	<polygon class="st2" points="642.35,422.32 642.35,537.77 760.63,537.77 715.19,516.25 679.96,516.25 679.96,400.15 	"/>
	<path class="st2" d="M837.59,393.95H716.93v109.04l72.4,34.79h26.96v-47.62h-36.74v22.39l-25.66-12.39v-23.48h62.4v-21.31h-62.62
		v-40.01h25.66v26.09h36.96C815.42,414.06,837.59,393.95,837.59,393.95z"/>
	<path class="st2" d="M514.74,234.64h8.41v11.52c3.54-0.53,7.14-0.89,10.78-1.1v-21.19h-29.97v26.86c3.52-1.15,7.12-2.14,10.78-2.96
		V234.64z"/>
	<path class="st2" d="M575.28,179.35l-18.75,10.66l-16.91-16.91l-16.82,16.91l-18.84-10.66v37.5h71.32V179.35z M568.98,208.45
		h-58.72v-12.39l12.08,6.77l17.29-17.28l17.39,17.28l11.97-6.77V208.45z"/>
	<path class="st2" d="M575.28,249.78v-25.91h-29.97v21.06c3.64,0.13,7.23,0.42,10.78,0.86v-11.15h8.41v12.47
		C568.15,247.83,571.75,248.73,575.28,249.78z"/>
	<path class="st2" d="M660.65,361.08c-3.79-61.27-53.63-110.07-115.34-112.2v9.26v3.96v8.69l-22.15,22.16v43.44l17.27,38.52
		l15.66-38.62v-45.6l-10.78,10.78v32.72l-5.38,13.27l-5.99-13.37v-36.59l22.15-22.16v-12.26c49.34,6.94,87.82,47.65,91.32,98.01
		c-7.12,0-14.25,0-21.37,0c-3.18-36.55-29.22-66.18-63.52-75.03v14.5c26.56,8.42,46.32,32.1,49.01,60.74
		c0.09,0.93,0.15,1.86,0.21,2.8c0.01,0.19,0.03,0.38,0.03,0.56c0.05,1.1,0.08,2.22,0.08,3.33c0,0.69-0.03,1.37-0.05,2.05h0.02
		c-0.02,0.63-0.05,1.27-0.08,1.9c92.49,0,184.98,0,277.68,0c-2.12,2.48-3.43,4.23-4.95,5.76c-10.73,10.8-21.34,21.72-32.32,32.26
		c-9.9,9.5-14.39,20.76-14.33,34.5c0.27,60.61,0.17,121.21,0.29,181.82c0.02,9.83-1.32,19.29-6.3,27.9
		c-9.01,15.59-22.43,24.25-40.56,25.26c-1.75,0.1-3.51,0.04-5.27,0.04c-163.9,0-327.8-0.06-491.71,0.09
		c-15.91,0.01-29.27-4.92-39.75-16.92c-8.45-9.68-11.97-21.1-11.93-33.96c0.15-47.72,0.06-95.45,0.06-143.17
		c0-14.05-0.06-28.11,0.02-42.16c0.07-12.66-4.26-23.31-13.44-32.21c-12.79-12.4-25.27-25.11-39.41-39.21c93.85,0,187.32,0,280.67,0
		c-0.03-0.63-0.06-1.26-0.08-1.9h0.02c-0.02-0.68-0.05-1.36-0.05-2.05c0-1.11,0.03-2.21,0.08-3.3c0.01-0.2,0.02-0.39,0.03-0.59
		c0.05-0.93,0.12-1.85,0.2-2.77c2.58-27.57,20.97-50.55,46.02-59.75v-14.7c-32.82,9.76-57.45,38.73-60.53,74.21
		c-7.12,0-14.25,0-21.37,0c3.43-49.34,40.44-89.42,88.34-97.55v14.05l10.78-10.77v-4.55v-3.95v-9.28
		c-60.32,3.57-108.63,51.77-112.36,112.06c-85.83,0-171.73,0-257.86,0c3.34,3.49,5.3,5.62,7.35,7.67
		c15.72,15.75,31.19,31.76,47.29,47.1c9.12,8.69,13.13,18.42,13.05,31.11c-0.4,58.56-0.19,117.12-0.14,175.68
		c0,4.97,0.23,9.95,0.69,14.9c1.22,13.32,6.71,24.77,15.86,34.42c12.62,13.3,28.31,18.95,46.51,18.94
		c163.91-0.08,327.83-0.04,491.74-0.04c1.46,0,2.93,0.05,4.39-0.02c15.85-0.7,29.6-6.27,40.9-17.58
		c12.49-12.51,17.82-27.69,17.77-45.25c-0.19-60.9-0.05-121.81-0.29-182.71c-0.04-10.96,3.44-19.77,11.29-27.43
		c16.97-16.56,33.6-33.47,50.34-50.27c1.75-1.76,3.32-3.7,5.83-6.53C830.94,361.08,745.78,361.08,660.65,361.08z"/>
</g>
</svg>
