<svg width="126" height="24" viewBox="0 0 126 24" fill="none" xmlns="http://www.w3.org/2000/svg">
<path d="M18.1641 21.2324C17.9004 23.4883 17.0654 25.2314 15.6592 26.4619C14.2627 27.6826 12.4023 28.293 10.0781 28.293C7.55859 28.293 5.53711 27.3896 4.01367 25.583C2.5 23.7764 1.74316 21.3594 1.74316 18.332V16.2812C1.74316 14.2988 2.09473 12.5557 2.79785 11.0518C3.51074 9.54785 4.5166 8.39551 5.81543 7.59473C7.11426 6.78418 8.61816 6.37891 10.3271 6.37891C12.5928 6.37891 14.4092 7.01367 15.7764 8.2832C17.1436 9.54297 17.9395 11.291 18.1641 13.5273H15.3369C15.0928 11.8281 14.5605 10.5977 13.7402 9.83594C12.9297 9.07422 11.792 8.69336 10.3271 8.69336C8.53027 8.69336 7.11914 9.35742 6.09375 10.6855C5.07812 12.0137 4.57031 13.9033 4.57031 16.3545V18.4199C4.57031 20.7344 5.05371 22.5752 6.02051 23.9424C6.9873 25.3096 8.33984 25.9932 10.0781 25.9932C11.6406 25.9932 12.8369 25.6416 13.667 24.9385C14.5068 24.2256 15.0635 22.9902 15.3369 21.2324H18.1641ZM20.874 19.9287C20.874 18.376 21.1768 16.9795 21.7822 15.7393C22.3975 14.499 23.2471 13.542 24.3311 12.8682C25.4248 12.1943 26.6699 11.8574 28.0664 11.8574C30.2246 11.8574 31.9678 12.6045 33.2959 14.0986C34.6338 15.5928 35.3027 17.5801 35.3027 20.0605V20.251C35.3027 21.7939 35.0049 23.1807 34.4092 24.4111C33.8232 25.6318 32.9785 26.584 31.875 27.2676C30.7812 27.9512 29.5215 28.293 28.0957 28.293C25.9473 28.293 24.2041 27.5459 22.8662 26.0518C21.5381 24.5576 20.874 22.5801 20.874 20.1191V19.9287ZM23.5986 20.251C23.5986 22.0088 24.0039 23.4199 24.8145 24.4844C25.6348 25.5488 26.7285 26.0811 28.0957 26.0811C29.4727 26.0811 30.5664 25.5439 31.377 24.4697C32.1875 23.3857 32.5928 21.8721 32.5928 19.9287C32.5928 18.1904 32.1777 16.7842 31.3477 15.71C30.5273 14.626 29.4336 14.084 28.0664 14.084C26.7285 14.084 25.6494 14.6162 24.8291 15.6807C24.0088 16.7451 23.5986 18.2686 23.5986 20.251ZM41.6455 28H38.9355V12.1504H41.6455V28ZM38.7158 7.94629C38.7158 7.50684 38.8477 7.13574 39.1113 6.83301C39.3848 6.53027 39.7852 6.37891 40.3125 6.37891C40.8398 6.37891 41.2402 6.53027 41.5137 6.83301C41.7871 7.13574 41.9238 7.50684 41.9238 7.94629C41.9238 8.38574 41.7871 8.75195 41.5137 9.04492C41.2402 9.33789 40.8398 9.48438 40.3125 9.48438C39.7852 9.48438 39.3848 9.33789 39.1113 9.04492C38.8477 8.75195 38.7158 8.38574 38.7158 7.94629ZM48.5596 12.1504L48.6475 14.1426C49.8584 12.6191 51.4404 11.8574 53.3936 11.8574C56.7432 11.8574 58.4326 13.7471 58.4619 17.5264V28H55.752V17.5117C55.7422 16.3691 55.4785 15.5244 54.9609 14.9775C54.4531 14.4307 53.6572 14.1572 52.5732 14.1572C51.6943 14.1572 50.9229 14.3916 50.2588 14.8604C49.5947 15.3291 49.0771 15.9443 48.7061 16.7061V28H45.9961V12.1504H48.5596Z" transform="translate(-1 -5)" fill="#505FC7"/>
<path d="M62.4023 28V6.67188H68.9648C70.8398 6.67188 72.5146 7.09668 73.9893 7.94629C75.4736 8.78613 76.6309 9.9873 77.4609 11.5498C78.291 13.1025 78.7061 14.8701 78.7061 16.8525V17.834C78.7061 19.8164 78.2959 21.5791 77.4756 23.1221C76.665 24.665 75.5176 25.8613 74.0332 26.7109C72.5488 27.5605 70.874 27.9902 69.0088 28H62.4023ZM66.7969 10.2314V24.4697H68.9209C70.6396 24.4697 71.9531 23.9082 72.8613 22.7852C73.7695 21.6621 74.2334 20.0557 74.2529 17.9658V16.8379C74.2529 14.6699 73.8037 13.0293 72.9053 11.916C72.0068 10.793 70.6934 10.2314 68.9648 10.2314H66.7969ZM90.8203 28C90.625 27.6191 90.4834 27.1455 90.3955 26.5791C89.3701 27.7217 88.0371 28.293 86.3965 28.293C84.8438 28.293 83.5547 27.8438 82.5293 26.9453C81.5137 26.0469 81.0059 24.9141 81.0059 23.5469C81.0059 21.8672 81.626 20.5781 82.8662 19.6797C84.1162 18.7812 85.918 18.3271 88.2715 18.3174H90.2197V17.4092C90.2197 16.6768 90.0293 16.0908 89.6484 15.6514C89.2773 15.2119 88.6865 14.9922 87.876 14.9922C87.1631 14.9922 86.6016 15.1631 86.1914 15.5049C85.791 15.8467 85.5908 16.3154 85.5908 16.9111H81.3574C81.3574 15.9932 81.6406 15.1436 82.207 14.3623C82.7734 13.5811 83.5742 12.9707 84.6094 12.5312C85.6445 12.082 86.8066 11.8574 88.0957 11.8574C90.0488 11.8574 91.5967 12.3506 92.7393 13.3369C93.8916 14.3135 94.4678 15.6904 94.4678 17.4678V24.3379C94.4775 25.8418 94.6875 26.9795 95.0977 27.751V28H90.8203ZM87.3193 25.0557C87.9443 25.0557 88.5205 24.9189 89.0479 24.6455C89.5752 24.3623 89.9658 23.9863 90.2197 23.5176V20.793H88.6377C86.5186 20.793 85.3906 21.5254 85.2539 22.9902L85.2393 23.2393C85.2393 23.7666 85.4248 24.2012 85.7959 24.543C86.167 24.8848 86.6748 25.0557 87.3193 25.0557ZM106.304 23.6201C106.304 23.1025 106.045 22.6973 105.527 22.4043C105.02 22.1016 104.199 21.833 103.066 21.5986C99.2969 20.8076 97.4121 19.2061 97.4121 16.7939C97.4121 15.3877 97.9932 14.2158 99.1553 13.2783C100.327 12.3311 101.855 11.8574 103.74 11.8574C105.752 11.8574 107.358 12.3311 108.56 13.2783C109.771 14.2256 110.376 15.4561 110.376 16.9697H106.143C106.143 16.3643 105.947 15.8662 105.557 15.4756C105.166 15.0752 104.556 14.875 103.726 14.875C103.013 14.875 102.461 15.0361 102.07 15.3584C101.68 15.6807 101.484 16.0908 101.484 16.5889C101.484 17.0576 101.704 17.4385 102.144 17.7314C102.593 18.0146 103.345 18.2637 104.399 18.4785C105.454 18.6836 106.343 18.918 107.065 19.1816C109.302 20.002 110.42 21.4229 110.42 23.4443C110.42 24.8896 109.8 26.0615 108.56 26.96C107.319 27.8486 105.718 28.293 103.755 28.293C102.427 28.293 101.245 28.0586 100.21 27.5898C99.1846 27.1113 98.3789 26.4619 97.793 25.6416C97.207 24.8115 96.9141 23.918 96.9141 22.9609H100.928C100.967 23.7129 101.245 24.2891 101.763 24.6895C102.28 25.0898 102.974 25.29 103.843 25.29C104.653 25.29 105.264 25.1387 105.674 24.8359C106.094 24.5234 106.304 24.1182 106.304 23.6201ZM117.29 13.8789C118.413 12.5312 119.824 11.8574 121.523 11.8574C124.961 11.8574 126.704 13.8545 126.753 17.8486V28H122.52V17.9658C122.52 17.0576 122.324 16.3887 121.934 15.959C121.543 15.5195 120.894 15.2998 119.985 15.2998C118.745 15.2998 117.847 15.7783 117.29 16.7354V28H113.057V5.5H117.29V13.8789Z" transform="translate(-1 -5)" fill="#FF78CB"/>
</svg>
